<svg xmlns="http://www.w3.org/2000/svg" width="32" height="32" fill="none" viewBox="0 0 800 800"> <path fill="#000" d="M400 470.313c38.75 0 70.469-31.563 70.469-70.469 0-15.313-5-29.531-13.281-41.094-12.813-17.656-33.594-29.375-57.032-29.375-23.437 0-44.218 11.563-57.031 29.375-8.281 11.563-13.281 25.781-13.281 41.094-.156 38.906 31.406 70.469 70.156 70.469Zm153.75-156.407v-67.812H545l-59.062.156.312 67.812 67.5-.156Z"></path> <path fill="#000" d="M737.5 0h-675C27.969 0 0 27.969 0 62.5v675C0 772.031 27.969 800 62.5 800h675c34.531 0 62.5-27.969 62.5-62.5v-675C800 27.969 772.031 0 737.5 0ZM600 358.906v163.75C600 565.312 565.312 600 522.656 600H277.344C234.688 600 200 565.312 200 522.656V277.187c0-42.656 34.688-77.343 77.344-77.343h245.312c42.656 0 77.344 34.687 77.344 77.343v81.719Z"></path> </svg>