<svg xmlns="http://www.w3.org/2000/svg" width="32" height="32" fill="none" viewBox="0 0 800 800"> <path fill="#000" d="M737.5 0h-675C27.969 0 0 27.969 0 62.5v675C0 772.031 27.969 800 62.5 800h675c34.531 0 62.5-27.969 62.5-62.5v-675C800 27.969 772.031 0 737.5 0ZM488.281 332.188l-4.531 59.843h-61.406v207.813h-77.5V392.031h-41.407v-59.843h41.407v-40.157c0-17.656.468-45 13.281-62.031 13.594-17.969 32.187-30.156 64.219-30.156 52.187 0 74.062 7.5 74.062 7.5l-10.312 61.25s-17.188-5-33.282-5c-16.093 0-30.468 5.781-30.468 21.875v46.719h65.937Z"></path> </svg>